<svg xmlns="http://www.w3.org/2000/svg" x="0" y="0" viewBox="0 0 128 128"><path fill="#fff" d="M4,15.3c0-6,4.9-10.9,10.9-10.9h98.2c6,0,10.9,4.9,10.9,10.9v97.5c0,6-4.9,10.9-10.9,10.9H14.9 c-6,0-10.9-4.9-10.9-10.9V15.3"/><path fill="#444b54" d="M113.1,126.6H14.9c-7.7,0-13.9-6.2-13.9-13.9V15.3C1,7.6,7.2,1.4,14.9,1.4h98.2c7.7,0,13.9,6.2,13.9,13.9 v97.5C127,120.4,120.8,126.6,113.1,126.6z M14.9,7.4c-4.4,0-7.9,3.5-7.9,7.9v97.5c0,4.4,3.5,7.9,7.9,7.9h98.2 c4.4,0,7.9-3.5,7.9-7.9V15.3c0-4.4-3.5-7.9-7.9-7.9H14.9z"/><path fill="#71c2ff" d="M47.4,82L50,71c0.4-1.5,2-2.8,3.6-2.8h2.1c9.1,0,16.3-1.8,21.3-5.6c5.1-3.7,7.6-8.6,7.6-14.6 c0-2.7-0.5-4.9-1.4-6.7c-0.9-1.8-2.3-3.2-4.1-4.3c-1.8-1.1-4-1.9-6.5-2.4c-2.5-0.5-5.4-0.7-8.8-0.7H48.2c-1.6,0-3.2,1.3-3.6,2.8 L34.1,82c-0.4,1.5,0.7,2.8,2.3,2.8h7.5C45.4,84.8,47.1,83.5,47.4,82z M53.5,55.8l2.3-9.6c0.4-1.5,2-2.8,3.6-2.8h2.5 c2.9,0,5,0.5,6.5,1.4c1.5,0.9,2.2,2.4,2.2,4.4c0,3-1.1,5.3-3.4,6.9c-2.3,1.6-5.4,2.4-9.4,2.4h-1.9C54.2,58.6,53.2,57.3,53.5,55.8z"/><path fill="#71c2ff" d="M88.8,48.1c0.4,1.3,0.6,2.9,0.6,4.6c0,6-2.5,10.9-7.6,14.6c-5.1,3.7-12.2,5.6-21.3,5.6h-2.1 c-1.6,0-3.2,1.3-3.6,2.8l-2.6,10.9c-0.4,1.5-2,2.8-3.6,2.8h-4.7l-0.4,1.8C43,92.7,44.1,94,45.7,94h7.5c1.6,0,3.2-1.3,3.6-2.8 l2.6-10.9c0.4-1.5,2-2.8,3.6-2.8H65c9.1,0,16.2-1.8,21.3-5.6c5.1-3.7,7.6-8.6,7.6-14.6c0-2.7-0.5-4.9-1.4-6.7 c-0.6-1.2-1.4-2.2-2.4-3C89.7,47.1,88.5,47.3,88.8,48.1z"/></svg>